<svg xmlns="http://www.w3.org/2000/svg" id="add_2_" width="75.261" height="75.261" viewBox="0 0 75.261 75.261">
    <defs>
        <style>
            .cls-1{fill:#fc5920}
        </style>
    </defs>
    <path id="Path_48" d="M28.286 65.853H7.84A7.849 7.849 0 0 1 0 58.014V7.84A7.849 7.849 0 0 1 7.84 0h37.63a7.849 7.849 0 0 1 7.84 7.84v19a1.568 1.568 0 0 1-3.136 0v-19a4.71 4.71 0 0 0-4.7-4.7H7.84a4.71 4.71 0 0 0-4.7 4.7v50.174a4.71 4.71 0 0 0 4.7 4.7h20.446a1.568 1.568 0 0 1 0 3.136z" class="cls-1"/>
    <path id="Path_49" d="M35.927 11.136H4.568a1.568 1.568 0 1 1 0-3.136h31.359a1.568 1.568 0 1 1 0 3.136z" class="cls-1" transform="translate(6.408 17.087)"/>
    <path id="Path_50" d="M23.383 15.136H4.568a1.568 1.568 0 1 1 0-3.136h18.815a1.568 1.568 0 1 1 0 3.136z" class="cls-1" transform="translate(6.408 25.631)"/>
    <path id="Path_51" d="M20.247 7.136H4.568a1.568 1.568 0 0 1 0-3.136h15.679a1.568 1.568 0 1 1 0 3.136z" class="cls-1" transform="translate(6.408 8.544)"/>
    <path id="Path_52" d="M31.383 51.766a20.383 20.383 0 1 1 20.383-20.383 20.407 20.407 0 0 1-20.383 20.383zm0-37.631a17.247 17.247 0 1 0 17.248 17.248 17.268 17.268 0 0 0-17.248-17.247z" class="cls-1" transform="translate(23.495 23.495)"/>
    <path id="Path_53" d="M18.568 35.951A1.569 1.569 0 0 1 17 34.383V15.568a1.568 1.568 0 1 1 3.136 0v18.815a1.569 1.569 0 0 1-1.568 1.568z" class="cls-1" transform="translate(36.31 29.902)"/>
    <path id="Path_54" d="M34.383 20.136H15.568a1.568 1.568 0 0 1 0-3.136h18.815a1.568 1.568 0 1 1 0 3.136z" class="cls-1" transform="translate(29.902 36.31)"/>
</svg>
