<svg xmlns="http://www.w3.org/2000/svg" width="74.786" height="67.099" viewBox="0 0 74.786 67.099">
    <defs>
        <style>
            .cls-1{fill:#f44336}
        </style>
    </defs>
    <g id="alert_1_" transform="translate(0 -26.315)">
        <g id="Group_48" transform="translate(0 26.315)">
            <g id="Group_47">
                <path id="Path_41" d="M73.594 80.223L45.009 30.712a8.794 8.794 0 0 0-15.232 0L1.192 80.223a8.794 8.794 0 0 0 7.616 13.191h57.17a8.794 8.794 0 0 0 7.616-13.191zm-3.795 6.6a4.368 4.368 0 0 1-3.821 2.206H8.808a4.412 4.412 0 0 1-3.821-6.619L33.572 32.9a4.412 4.412 0 0 1 7.643 0L69.8 82.414a4.368 4.368 0 0 1 0 4.412z" class="cls-1" transform="translate(0 -26.315)"/>
            </g>
        </g>
        <g id="Group_50" transform="translate(35.202 48.18)">
            <g id="Group_49">
                <path id="Rectangle_162" d="M0 0H4.381V21.907H0z" class="cls-1"/>
            </g>
        </g>
        <g id="Group_52" transform="translate(34.472 74.47)">
            <g id="Group_51">
                <path id="Path_42" d="M238.923 355.99a2.921 2.921 0 1 0 2.921 2.921 2.924 2.924 0 0 0-2.921-2.921z" class="cls-1" transform="translate(-236.002 -355.99)"/>
            </g>
        </g>
    </g>
</svg>
