<svg xmlns="http://www.w3.org/2000/svg" width="40" height="40" viewBox="0 0 40 40">
    <defs>
        <style>
            .cls-2{fill:#fff}
        </style>
    </defs>
    <g id="Group_223" transform="translate(-24 -176)">
        <path id="Rectangle_427" fill="none" d="M0 0H40V40H0z" transform="translate(24 176)"/>
        <g id="vector" transform="translate(30.875 182.875)">
            <g id="Group_271">
                <g id="Group_270">
                    <path id="Path_34" d="M25.895 0h-3.179a.781.781 0 0 0-.782.782v.782h-6.4a2.331 2.331 0 0 0-4.4 0h-6.4V.782A.781.781 0 0 0 3.96 0H.782A.781.781 0 0 0 0 .782v3.126a.781.781 0 0 0 .782.782H3.96a.781.781 0 0 0 .782-.782v-.792h3.21a10.2 10.2 0 0 0-4.714 8 2.338 2.338 0 1 0 1.56.035 8.576 8.576 0 0 1 6.467-7.742 2.325 2.325 0 0 0 4.15 0 8.576 8.576 0 0 1 6.467 7.742 2.351 2.351 0 1 0 1.56-.035 10.176 10.176 0 0 0-4.714-7.993h3.21v.782a.781.781 0 0 0 .782.782h3.178a.781.781 0 0 0 .782-.782V.782A.781.781 0 0 0 25.895 0z" class="cls-2"/>
                </g>
            </g>
            <g id="Group_273" transform="translate(7.987 23.498)">
                <g id="Group_272">
                    <path id="Path_35" d="M163.962 453.209A3.178 3.178 0 0 0 160.99 451h-4.69a3.178 3.178 0 0 0-2.972 2.209.77.77 0 0 0 .76.969h9.112a.77.77 0 0 0 .762-.969z" class="cls-2" transform="translate(-153.294 -451)"/>
                </g>
            </g>
            <g id="Group_275" transform="translate(6.304 6.849)">
                <g id="Group_274">
                    <path id="Path_36" d="M134.936 140.64l-6.121-9.181v7.414a2.345 2.345 0 1 1-1.563 0v-7.414l-6.121 9.181a.781.781 0 0 0 .1.986 9.869 9.869 0 0 1 2.706 5.266 4.654 4.654 0 0 1 1.754-.348h4.689a4.655 4.655 0 0 1 1.754.347 9.868 9.868 0 0 1 2.706-5.266.781.781 0 0 0 .096-.985z" class="cls-2" transform="translate(-121 -131.459)"/>
                </g>
            </g>
            <g id="Group_277" transform="translate(12.557 15.683)">
                <g id="Group_276">
                    <path id="Path_37" d="M241.782 301a.782.782 0 1 0 .782.782.782.782 0 0 0-.782-.782z" class="cls-2" transform="translate(-241 -301)"/>
                </g>
            </g>
        </g>
    </g>
</svg>
