<svg xmlns="http://www.w3.org/2000/svg" width="48" height="48" viewBox="0 0 48 48">
    <defs>
        <clipPath id="dd896uukya">
            <circle cx="24" cy="24" r="24" fill="#fff" transform="translate(1939 997)"/>
        </clipPath>
    </defs>
    <g>
        <g clip-path="url(#dd896uukya)" transform="translate(-16 -1000) translate(-1923 3)">
            <path fill="#f29884" d="M105.914 9.439a9.134 9.134 0 0 1-2.765 6.674 9.134 9.134 0 0 1-6.674 2.765 9.136 9.136 0 0 1-6.67-2.765 9.133 9.133 0 0 1-2.765-6.674 9.132 9.132 0 0 1 2.76-6.674A9.131 9.131 0 0 1 96.47 0a9.137 9.137 0 0 1 6.674 2.765 9.133 9.133 0 0 1 2.77 6.674zm0 0" transform="translate(1866.627 1006.404)"/>
            <path fill="#3b72d8" d="M32.7 260.84a6.506 6.506 0 0 1-1.933 4.923 6.957 6.957 0 0 1-4.981 1.817H6.913a6.954 6.954 0 0 1-4.98-1.817A6.505 6.505 0 0 1 0 260.84c0-.787.026-1.566.078-2.314a23.171 23.171 0 0 1 .322-2.477 19.548 19.548 0 0 1 .6-2.489 12.345 12.345 0 0 1 1.024-2.323 8.79 8.79 0 0 1 1.543-2.011 6.807 6.807 0 0 1 2.218-1.393 7.666 7.666 0 0 1 2.83-.512 2.868 2.868 0 0 1 1.533.65c.467.3 1.005.652 1.6 1.031a9.129 9.129 0 0 0 2.067.911 8.241 8.241 0 0 0 2.278.4h.25a8.221 8.221 0 0 0 2.53-.409 9.128 9.128 0 0 0 2.072-.904c.6-.384 1.139-.73 1.6-1.03a2.865 2.865 0 0 1 1.534-.651 7.67 7.67 0 0 1 2.83.512 6.812 6.812 0 0 1 2.217 1.393 8.759 8.759 0 0 1 1.543 2.011 12.3 12.3 0 0 1 1.024 2.322 19.534 19.534 0 0 1 .609 2.49 23.389 23.389 0 0 1 .317 2.476c.052.749.081 1.527.081 2.317zm0 0" transform="translate(1947 778.015)"/>
            <path fill="#f46545" d="M210.3 18.878V0a9.137 9.137 0 0 1 6.674 2.765 9.133 9.133 0 0 1 2.765 6.674 9.134 9.134 0 0 1-2.765 6.674 9.134 9.134 0 0 1-6.674 2.765zm0 0" transform="translate(1752.804 1006.404)"/>
            <path fill="#264280" d="M226.894 260.84a6.506 6.506 0 0 1-1.933 4.923 6.957 6.957 0 0 1-4.981 1.817h-9.687v-17.263h.25a8.221 8.221 0 0 0 2.53-.409 9.128 9.128 0 0 0 2.067-.908c.6-.384 1.139-.73 1.6-1.03a2.865 2.865 0 0 1 1.534-.651 7.67 7.67 0 0 1 2.83.512 6.812 6.812 0 0 1 2.217 1.393 8.758 8.758 0 0 1 1.543 2.011 12.3 12.3 0 0 1 1.024 2.322 19.537 19.537 0 0 1 .609 2.49 23.393 23.393 0 0 1 .317 2.476c.053.749.079 1.527.08 2.317zm0 0" transform="translate(1752.804 778.015)"/>
        </g>
        <g fill="none" stroke="#eaeff5" stroke-width="2px" transform="translate(-16 -1000) translate(16 1000)">
            <circle cx="24" cy="24" r="24" stroke="none"/>
            <circle cx="24" cy="24" r="23"/>
        </g>
    </g>
</svg>
