<svg xmlns="http://www.w3.org/2000/svg" width="72.611" height="69.588" viewBox="0 0 72.611 69.588">
    <path fill="none" stroke="#f46545" stroke-width="3.5px" d="M68.819 25.434a3.661 3.661 0 0 0-3.154-2.514l-19.918-1.8-7.872-18.4a3.671 3.671 0 0 0-6.748 0l-7.872 18.4-19.921 1.8a3.664 3.664 0 0 0-2.084 6.4L16.307 42.5l-4.44 19.52a3.667 3.667 0 0 0 5.457 3.958L34.5 55.727l17.172 10.251a3.669 3.669 0 0 0 5.46-3.958L52.693 42.5 67.75 29.325a3.661 3.661 0 0 0 1.069-3.891zM34.83 55.529" transform="translate(1.806 1.254)"/>
</svg>
